<mxfile host="app.diagrams.net" agent="Mozilla/5.0 (Windows NT 10.0; Win64; x64; rv:128.0) Gecko/20100101 Firefox/128.0" border="50" scale="3" compressed="false" locked="false" version="26.2.14">
  <diagram name="Blank" id="YmL12bMKpDGza6XwsDPr">
    <mxGraphModel dx="929" dy="1308" grid="0" gridSize="10" guides="1" tooltips="1" connect="1" arrows="1" fold="1" page="1" pageScale="1" pageWidth="827" pageHeight="1169" background="none" math="1" shadow="0">
      <root>
        <mxCell id="X5NqExCQtvZxIxQ7pmgY-0" />
        <mxCell id="1" parent="X5NqExCQtvZxIxQ7pmgY-0" />
        <mxCell id="NjAqU9Y5rHBkyYTPuW-a-1" value="Voice Input" style="swimlane;fontStyle=2;childLayout=stackLayout;horizontal=1;startSize=20;fillColor=none;horizontalStack=1;resizeParent=1;resizeParentMax=0;resizeLast=0;collapsible=0;marginBottom=0;swimlaneFillColor=none;strokeColor=none;fontFamily=Helvetica;fontSize=14;fontColor=#BABABA;points=[];verticalAlign=middle;stackBorder=10;stackSpacing=-10;resizable=1;" parent="1" vertex="1">
          <mxGeometry x="219" y="111" width="474" height="100" as="geometry" />
        </mxCell>
        <mxCell id="NjAqU9Y5rHBkyYTPuW-a-2" value="Record" style="shape=step;perimeter=stepPerimeter;strokeColor=#6C8EBF;fontFamily=Helvetica;fontSize=14;fontColor=#6C8EBF;fillColor=#dae8fc;fixedSize=1;size=17;fontStyle=1;strokeWidth=2;spacingTop=0;points=[];" parent="NjAqU9Y5rHBkyYTPuW-a-1" vertex="1">
          <mxGeometry x="10" y="30" width="100" height="60" as="geometry" />
        </mxCell>
        <mxCell id="NjAqU9Y5rHBkyYTPuW-a-3" value="Audio Upload" style="shape=step;perimeter=stepPerimeter;strokeColor=#82B366;fontFamily=Helvetica;fontSize=14;fontColor=#82B366;fillColor=#d5e8d4;fixedSize=1;size=17;fontStyle=1;strokeWidth=2;spacingTop=0;points=[];" parent="NjAqU9Y5rHBkyYTPuW-a-1" vertex="1">
          <mxGeometry x="100" y="30" width="135" height="60" as="geometry" />
        </mxCell>
        <mxCell id="NjAqU9Y5rHBkyYTPuW-a-4" value="Model Inference" style="shape=step;perimeter=stepPerimeter;strokeColor=#D6B656;fontFamily=Helvetica;fontSize=14;fontColor=#D6B656;fillColor=#fff2cc;fixedSize=1;size=17;fontStyle=1;strokeWidth=2;spacingTop=0;points=[];" parent="NjAqU9Y5rHBkyYTPuW-a-1" vertex="1">
          <mxGeometry x="225" y="30" width="149" height="60" as="geometry" />
        </mxCell>
        <mxCell id="NjAqU9Y5rHBkyYTPuW-a-5" value="Text" style="shape=step;perimeter=stepPerimeter;strokeColor=#B85450;fontFamily=Helvetica;fontSize=14;fontColor=#B85450;fillColor=#f8cecc;fixedSize=1;size=17;fontStyle=1;strokeWidth=2;spacingTop=0;points=[];" parent="NjAqU9Y5rHBkyYTPuW-a-1" vertex="1">
          <mxGeometry x="364" y="30" width="100" height="60" as="geometry" />
        </mxCell>
        <mxCell id="RcwoyfPcaLJ63eKTTwq--2" value="" style="html=1;verticalLabelPosition=bottom;align=center;labelBackgroundColor=#ffffff;verticalAlign=top;strokeWidth=2;strokeColor=#0080F0;shadow=0;dashed=0;shape=mxgraph.ios7.icons.microphone;" vertex="1" parent="1">
          <mxGeometry x="182" y="155" width="12" height="30" as="geometry" />
        </mxCell>
        <mxCell id="RcwoyfPcaLJ63eKTTwq--3" value="" style="html=1;outlineConnect=0;whiteSpace=wrap;fillColor=#66B2FF;shape=mxgraph.archimate3.process;strokeColor=none;" vertex="1" parent="1">
          <mxGeometry x="205" y="155" width="28" height="30" as="geometry" />
        </mxCell>
        <mxCell id="RcwoyfPcaLJ63eKTTwq--4" value="" style="points=[];aspect=fixed;html=1;align=center;shadow=0;dashed=0;fillColor=#FF6A00;strokeColor=none;shape=mxgraph.alibaba_cloud.user_feedback_02;" vertex="1" parent="1">
          <mxGeometry x="719" y="144.95" width="43.199999999999996" height="50.099999999999994" as="geometry" />
        </mxCell>
        <mxCell id="RcwoyfPcaLJ63eKTTwq--5" value="" style="html=1;outlineConnect=0;whiteSpace=wrap;fillColor=#FF9999;shape=mxgraph.archimate3.process;strokeColor=none;" vertex="1" parent="1">
          <mxGeometry x="691" y="155" width="28" height="30" as="geometry" />
        </mxCell>
      </root>
    </mxGraphModel>
  </diagram>
</mxfile>
